<?xml version="1.0" encoding="utf-8"?><svg viewBox="0 0 40 40" xmlns="http://www.w3.org/2000/svg" xmlns:xlink="http://www.w3.org/1999/xlink"><style>:root>svg{display:none}:root>svg:target{display:block}</style><svg viewBox="0 0 20 20" id="+" xmlns="http://www.w3.org/2000/svg"><path d="M10 4.167v11.666M4.167 10h11.666"/></svg><svg viewBox="0 0 20 20" id="-" xmlns="http://www.w3.org/2000/svg"><path d="M4.167 10h11.666"/></svg><svg viewBox="0 0 24 24" id="VK" xmlns="http://www.w3.org/2000/svg"><g clip-path="url(#sa)"><path d="M0 11.52c0-5.43 0-8.146 1.687-9.833C3.374 0 6.09 0 11.52 0h.96c5.43 0 8.146 0 9.833 1.687C24 3.374 24 6.09 24 11.52v.96c0 5.43 0 8.146-1.687 9.833C20.626 24 17.911 24 12.48 24h-.96c-5.43 0-8.146 0-9.833-1.687C0 20.626 0 17.911 0 12.48v-.96Z"/><path d="M12.77 17.29c-5.47 0-8.59-3.75-8.72-9.99h2.74c.09 4.58 2.11 6.52 3.71 6.92V7.3h2.58v3.95c1.58-.17 3.24-1.97 3.8-3.95h2.58c-.43 2.44-2.23 4.24-3.51 4.98 1.28.6 3.33 2.17 4.11 5.01h-2.84c-.61-1.9-2.13-3.37-4.14-3.57v3.57h-.31Z"/></g><defs><clipPath id="sa"><path d="M0 0h24v24H0z"/></clipPath></defs></svg><svg viewBox="0 0 21 20" id="cart" xmlns="http://www.w3.org/2000/svg"><path fill-rule="evenodd" clip-rule="evenodd" d="M2.88 2.758a6.884 6.884 0 0 0-.447-.008H.917a.917.917 0 0 1 0-1.833h1.542c.197 0 .392 0 .559.013.185.014.401.046.625.146.314.14.582.366.774.652.137.203.206.41.252.59.04.163.074.355.108.548l.004.026L5 4.148l11.93.353c.466.014.87.026 1.203.062.352.04.7.112 1.035.29.507.27.916.692 1.171 1.207.169.34.23.69.26 1.042.026.334.026.738.026 1.206v.068c0 .44 0 .82-.025 1.136-.026.336-.083.669-.237.995A2.75 2.75 0 0 1 19.28 11.7c-.31.184-.636.273-.967.332-.312.054-.691.091-1.129.134l-8.923.863c-.448.043-.837.081-1.16.087-.344.006-.689-.02-1.034-.148a2.75 2.75 0 0 1-1.289-.982c-.214-.3-.331-.624-.417-.957-.08-.314-.147-.699-.224-1.142l-1.162-6.68a6.894 6.894 0 0 0-.086-.449h-.01ZM5.32 5.99l.617 3.548c.085.487.14.8.2 1.035.058.224.103.305.132.346.107.15.257.264.43.327.047.018.137.04.369.036a14.93 14.93 0 0 0 1.05-.082l8.856-.857c.48-.046.788-.077 1.022-.118.222-.04.305-.077.348-.102a.918.918 0 0 0 .36-.398c.021-.044.051-.13.069-.356.018-.236.019-.545.019-1.028 0-.512-.001-.841-.021-1.093-.02-.24-.052-.33-.075-.376a.916.916 0 0 0-.39-.402c-.044-.023-.134-.059-.373-.085a15.34 15.34 0 0 0-1.093-.054l-11.52-.34Zm2.472 10.052a.917.917 0 1 0 0 1.833.917.917 0 0 0 0-1.833Zm-2.75.917a2.75 2.75 0 1 1 5.5 0 2.75 2.75 0 0 1-5.5 0Zm11.458-.917a.917.917 0 1 0 0 1.833.917.917 0 0 0 0-1.833Zm-2.75.917a2.75 2.75 0 1 1 5.5 0 2.75 2.75 0 0 1-5.5 0Z"/></svg><svg viewBox="0 0 14 13" id="check" xmlns="http://www.w3.org/2000/svg"><path d="M13 .861 4.946 11.077 1 6.923"/></svg><svg viewBox="0 0 20 20" id="down" xmlns="http://www.w3.org/2000/svg"><path d="m5 7.5 5 5 5-5"/></svg><svg viewBox="0 0 28 28" id="exel" xmlns="http://www.w3.org/2000/svg"><g clip-path="url(#fa)"><path d="M16.114.712a.583.583 0 0 0-.495-.117L.453 4.095A.583.583 0 0 0 0 4.669v19.833c0 .288.21.533.495.577l15.166 2.333a.583.583 0 0 0 .672-.576V1.169a.583.583 0 0 0-.219-.457Z"/><path d="M27.417 25.086H15.75a.583.583 0 0 1 0-1.167h11.083V4.086H15.75a.583.583 0 1 1 0-1.167h11.667c.322 0 .583.261.583.583v21a.583.583 0 0 1-.583.584ZM11.083 19.253a.583.583 0 0 1-.494-.274L4.755 9.646a.583.583 0 1 1 .99-.617l5.833 9.333a.583.583 0 0 1-.495.891Z"/><path d="M5.25 19.252a.583.583 0 0 1-.494-.892l5.834-9.333a.583.583 0 1 1 .99.617l-5.834 9.333a.584.584 0 0 1-.496.275ZM20.417 25.086a.583.583 0 0 1-.584-.584v-21a.583.583 0 0 1 1.167 0v21a.583.583 0 0 1-.583.584Z"/><path d="M27.417 21.586H15.75a.583.583 0 1 1 0-1.167h11.667a.583.583 0 0 1 0 1.167Zm0-3.5H15.75a.583.583 0 1 1 0-1.167h11.667a.583.583 0 0 1 0 1.167Zm0-3.5H15.75a.583.583 0 1 1 0-1.167h11.667a.583.583 0 0 1 0 1.167Zm0-3.5H15.75a.583.583 0 1 1 0-1.167h11.667a.583.583 0 0 1 0 1.167Zm0-3.5H15.75a.583.583 0 1 1 0-1.167h11.667a.583.583 0 0 1 0 1.167Z"/></g><defs><clipPath id="fa"><path d="M0 0h28v28H0z"/></clipPath></defs></svg><svg viewBox="0 0 20 18" id="favorite" xmlns="http://www.w3.org/2000/svg"><path d="M17.367 2.842a4.583 4.583 0 0 0-6.484 0L10 3.725l-.883-.883a4.584 4.584 0 1 0-6.484 6.483l.884.883L10 16.692l6.483-6.484.884-.883a4.581 4.581 0 0 0 0-6.483Z"/></svg><svg viewBox="0 0 24 24" id="fb" xmlns="http://www.w3.org/2000/svg"><path d="M21 0H3C1.345 0 0 1.345 0 3v18c0 1.654 1.345 3 3 3h9v-8.25H9V12h3V9a4.5 4.5 0 0 1 4.5-4.5h3v3.75H18c-.828 0-1.5-.078-1.5.75v3h3.75l-1.5 3.75H16.5V24H21c1.654 0 3-1.346 3-3V3c0-1.655-1.346-3-3-3Z"/></svg><svg viewBox="0 0 24 24" id="filter" xmlns="http://www.w3.org/2000/svg"><path d="M22 3H2l8 9.46V19l4 2v-8.54L22 3Z"/></svg><svg viewBox="0 0 20 20" id="heart" xmlns="http://www.w3.org/2000/svg"><path d="M17.367 3.842a4.584 4.584 0 0 0-6.484 0L10 4.725l-.883-.883a4.584 4.584 0 1 0-6.484 6.483l.884.883L10 17.692l6.483-6.484.884-.883a4.585 4.585 0 0 0 0-6.483Z"/></svg><svg viewBox="0 0 24 24" id="inst" xmlns="http://www.w3.org/2000/svg"><g clip-path="url(#ka)"><path d="M1.5 1.6C-.4 3.6 0 5.6 0 12c0 5.2-1 10.5 3.9 11.7 1.5.4 14.7.4 16.2 0 2-.5 3.7-2 3.9-5V5.3c-.3-3-2.1-4.7-4.6-5C19 0 18.8 0 16 0 5.7 0 3.5-.4 1.5 1.6Z"/><path d="M12 3.1c-3.6 0-7-.3-8.4 3.1-.5 1.4-.5 3.2-.5 5.8 0 2.3 0 4.4.5 5.8 1.3 3.4 4.8 3 8.4 3 3.5 0 7 .4 8.4-3 .5-1.4.5-3.2.5-5.8 0-3.5.1-5.7-1.5-7.4-1.7-1.7-4-1.5-7.4-1.5Zm-.8 1.6c7.6 0 8.5-.8 8 10.9-.2 4.1-3.3 3.7-7.2 3.7-7 0-7.3-.2-7.3-7.3s.6-7.3 6.5-7.3Zm5.5 1.5a1.05 1.05 0 0 0 0 2.1 1 1 0 1 0 0-2v-.1ZM12 7.4a4.6 4.6 0 1 0 0 9.2 4.6 4.6 0 0 0 0-9.2ZM12 9c3.9 0 4 6 0 6s-4-6 0-6Z"/></g><defs><clipPath id="ka"><path d="M0 0h24v24H0z"/></clipPath></defs></svg><svg viewBox="0 0 24 24" id="left" xmlns="http://www.w3.org/2000/svg"><path d="m9 18 6-6-6-6"/></svg><svg viewBox="0 0 16 16" id="map-pin" xmlns="http://www.w3.org/2000/svg"><path d="M14 6.667c0 4.666-6 8.666-6 8.666s-6-4-6-8.666a6 6 0 1 1 12 0Z"/><path d="M8 8.667a2 2 0 1 0 0-4 2 2 0 0 0 0 4Z"/></svg><svg viewBox="0 0 24 24" id="menu" xmlns="http://www.w3.org/2000/svg"><path d="M3 12h18M3 6h18M3 18h18"/></svg><svg viewBox="0 0 24 24" id="right" xmlns="http://www.w3.org/2000/svg"><path d="m15 6-6 6 6 6"/></svg><svg viewBox="0 0 20 20" id="search" xmlns="http://www.w3.org/2000/svg"><path d="M9.167 15.833a6.667 6.667 0 1 0 0-13.333 6.667 6.667 0 0 0 0 13.333ZM17.5 17.5l-3.625-3.625"/></svg><svg viewBox="0 0 24 24" id="send" xmlns="http://www.w3.org/2000/svg"><path d="M22 2 11 13M22 2l-7 20-4-9-9-4 20-7Z"/></svg><svg viewBox="0 0 20 20" id="user" xmlns="http://www.w3.org/2000/svg"><path d="M16.667 17.5v-1.667a3.333 3.333 0 0 0-3.334-3.333H6.667a3.333 3.333 0 0 0-3.334 3.333V17.5M10 9.167A3.333 3.333 0 1 0 10 2.5a3.333 3.333 0 0 0 0 6.667Z"/></svg><svg viewBox="0 0 40 40" id="x" xmlns="http://www.w3.org/2000/svg"><path d="M30 10 10 30m0-20 20 20"/></svg></svg>